<svg width="1200" height="900" viewBox="0 0 1200 900" fill="none" xmlns="http://www.w3.org/2000/svg">
  <rect width="1200" height="900" rx="48" fill="#F5EFE5"/>
  <rect x="72" y="72" width="1056" height="756" rx="32" fill="#FBF7F0" stroke="#D9D0C5"/>
  <path d="M160 694C302 558 430 486 586 486C738 486 844 556 1040 694" stroke="#1F5359" stroke-width="24" stroke-linecap="round"/>
  <circle cx="382" cy="332" r="92" fill="#D7E5E2"/>
  <rect x="528" y="250" width="354" height="18" rx="9" fill="#1F5359" fill-opacity="0.24"/>
  <rect x="528" y="304" width="278" height="18" rx="9" fill="#1F5359" fill-opacity="0.16"/>
  <rect x="250" y="470" width="700" height="22" rx="11" fill="#1F5359" fill-opacity="0.18"/>
  <rect x="250" y="526" width="620" height="22" rx="11" fill="#1F5359" fill-opacity="0.14"/>
  <rect x="250" y="582" width="660" height="22" rx="11" fill="#1F5359" fill-opacity="0.14"/>
  <rect x="250" y="638" width="408" height="22" rx="11" fill="#BE6F59" fill-opacity="0.22"/>
  <path d="M0 788C220 738 566 714 1200 776V900H0V788Z" fill="#14212B"/>
</svg>
